# xmcd
#
# Track frame offsets:
#	150
#	21072
#	40995
#	62282
#	74982
#	92462
#	111530
#	133262
#	163467
#	182102
#	200340
#	215652
#	233157
#	252242
#	270697
#	291137
#	308810
#
# Disc length: 4414 seconds
#
# Revision: 1
# Processed by: cddbd v1.5.1PL0 Copyright (c) Steve Scherf et al.
# Submitted via: CDex 1.50Beta5
#
DISCID=0a113c11
DTITLE=Various Artist - 80's Alive Japan Vol.2 そ
DYEAR=1900
DGENRE=Pop
TTITLE0=Tシャツに口紅
TTITLE1=悲しい色やね
TTITLE2=ガラス越しに消えた夏
TTITLE3=バカンスはいつも雨 (レイン)
TTITLE4=恋のビーチ・ドライバー
TTITLE5=そして僕は途方に暮れる
TTITLE6=ff (フォルティシモ)
TTITLE7=卒業
TTITLE8=両手いっぱいのジョニー
TTITLE9=YOUNG BLOODS
TTITLE10=恋するカレン
TTITLE11=唇よ、熱く君を語れ
TTITLE12=さらばシベリア鉄道
TTITLE13=ハートのイアリング
TTITLE14=シャイニン・オン 君が哀しい (シングルヴァージョン)
TTITLE15=もォやだ!
TTITLE16=Come On Let's Dance (This is the FANKS DYNA-MIX)
EXTD=
EXTT0=
EXTT1=
EXTT2=
EXTT3=
EXTT4=
EXTT5=
EXTT6=
EXTT7=
EXTT8=
EXTT9=
EXTT10=
EXTT11=
EXTT12=
EXTT13=
EXTT14=
EXTT15=
EXTT16=
PLAYORDER=
